<svg xmlns="http://www.w3.org/2000/svg" width="1584" height="396" viewBox="0 0 1584 396" fill="none">
  <path
    fill="#000"
    d="M1273.12 525.01C1294.95 546.835 1318.14 563.204 1346.78 575.48C1375.43 587.756 1405.43 593.212 1436.81 593.212C1473.64 593.212 1507.74 585.028 1540.47 568.66C1548.66 564.568 1556.84 560.475 1565.03 555.019L1581.4 544.107V366.782H1485.91L1449.08 432.256H1514.56V497.73C1514.56 497.73 1507.74 503.186 1506.37 503.186C1484.55 514.098 1461.36 519.554 1435.44 519.554C1393.16 519.554 1353.6 503.186 1323.59 473.177C1293.58 443.168 1277.22 403.611 1277.22 361.326C1277.22 319.041 1293.58 279.484 1323.59 249.475C1353.6 219.466 1393.16 203.098 1435.44 203.098C1460 203.098 1483.19 208.554 1503.65 218.102L1535.02 152.628C1503.65 137.624 1469.54 129.439 1434.08 129.439C1402.71 129.439 1372.7 136.26 1344.05 147.172C1315.41 159.448 1292.22 175.817 1270.4 197.641C1248.57 219.466 1232.2 242.655 1219.93 271.299C1207.65 299.944 1202.19 329.953 1202.19 361.326C1202.19 392.699 1209.01 422.708 1219.93 451.352C1234.93 479.997 1252.66 503.186 1273.12 525.01Z"
  />
  <path
    fill="#000"
    d="M305.278 504.879C298.451 491.33 288.894 476.426 280.702 462.877C271.145 447.974 261.588 434.425 250.666 420.876C239.743 407.327 228.821 393.778 217.899 380.229C206.976 366.68 194.689 354.486 183.766 342.292C197.419 331.453 211.072 320.614 224.725 307.065C238.378 293.516 250.666 278.612 262.954 260.999C275.241 243.385 286.164 225.772 295.721 205.448C305.278 185.125 314.835 163.447 321.661 139.059H247.935C238.378 167.511 224.725 190.544 211.072 212.223C197.419 232.546 174.209 256.934 159.191 270.483C144.173 284.032 129.154 294.871 115.501 303C100.483 309.775 82.7344 317.904 71.812 319.259V139.059H-1.91406V583.463H71.812V391.068C77.2732 391.068 82.7343 389.713 88.1955 388.358C97.7526 385.649 110.04 382.939 119.597 378.874C137.346 395.133 152.364 412.746 163.287 424.94C186.497 452.038 194.689 462.877 206.976 480.491C220.629 499.459 231.552 517.073 238.378 529.267C243.839 538.751 254.762 563.139 261.588 583.463H336.679C333.949 571.269 331.218 559.075 325.757 545.526C318.931 531.977 312.104 518.428 305.278 504.879Z"
  />
  <path
    fill="#000"
    d="M1128.86 418.668C1135.72 401.108 1142.58 382.198 1148.06 360.585L1086.35 344.376C1078.13 376.794 1068.53 403.81 1058.93 425.422L956.079 338.973C947.851 332.219 939.623 325.465 932.767 318.711C925.91 311.957 919.054 305.204 912.197 298.45C906.712 291.696 901.227 284.942 898.484 276.837C894.37 268.733 892.999 260.628 892.999 252.523C892.999 233.613 898.484 220.105 908.083 212C919.054 202.545 932.767 198.493 949.223 198.493C965.678 198.493 979.391 202.545 988.99 210.65C998.59 218.754 1005.45 230.911 1008.19 247.12L1075.38 241.717C1071.27 209.299 1056.18 183.634 1034.24 166.074C1010.93 148.514 983.505 139.059 950.594 139.059C932.767 139.059 914.94 141.76 899.855 147.163C884.771 151.216 871.058 159.32 860.087 168.776C849.117 178.231 840.889 190.388 834.033 203.896C827.176 217.403 824.433 233.613 824.433 252.523C824.433 270.083 828.547 284.942 835.404 299.8C842.26 313.308 850.488 326.816 861.459 338.973C839.518 353.831 823.062 370.041 809.349 390.302C795.636 409.213 788.779 432.176 788.779 460.542C788.779 478.102 791.522 494.312 798.379 509.17C805.235 524.029 813.463 536.186 825.805 548.343C838.146 559.149 853.231 567.253 872.429 574.007C890.256 580.761 912.197 583.463 936.881 583.463C962.936 583.463 986.248 578.06 1008.19 568.604C1031.5 559.149 1052.07 544.29 1071.27 522.678L1142.58 583.463L1185.09 532.133L1109.67 468.647C1113.78 452.438 1122.01 436.228 1128.86 418.668ZM982.134 513.222C967.049 519.976 951.965 522.678 935.509 522.678C910.826 522.678 891.627 515.924 877.914 503.767C864.201 491.61 857.345 474.05 857.345 452.438C857.345 434.878 861.459 420.019 868.315 407.862C875.172 395.705 886.142 384.899 898.484 375.444L906.712 382.198L1023.27 480.804C1009.56 495.662 995.847 506.469 982.134 513.222Z"
  />
  <path
    fill="#000"
    d="M576.089 142.213C613.823 142.213 643.388 155.941 663.513 177.786C683.628 199.621 694.262 229.507 694.262 261.749C694.262 294.366 675.51 321.549 651.368 341.995C691.881 360.068 718.814 396.955 718.814 447.259C718.814 486.355 704.406 519.667 679.498 543.2C654.594 566.731 619.247 580.435 577.453 580.436H411.539V320.901H566.541C587.491 320.901 603.63 314.147 614.527 303.418C625.428 292.685 631.148 277.911 631.148 261.749C631.148 245.512 627.088 231.075 618.228 220.709C609.386 210.366 595.666 203.962 576.089 203.962H411.539V142.213H576.089ZM471.924 520.051H577.453C602.527 520.051 622.073 512.937 635.344 500.506C648.609 488.08 655.701 470.252 655.701 448.623C655.701 427.683 648.614 410.195 635.349 397.937C622.076 385.672 602.527 378.559 577.453 378.559H471.924V520.051Z"
  />
</svg>
